# AST/ASF file generated using VICON BodyLanguage
# -----------------------------------------------
:version 1.10
:name VICON
:units
  mass 1.0
  length 0.45
  angle deg
:documentation
   .ast/.asf automatically generated from VICON data using
   VICON BodyBuilder and BodyLanguage model FoxedUp or BRILLIANT.MOD
:root
   order TX TY TZ RX RY RZ
   axis XYZ
   position 0 0 0  
   orientation 0 0 0 
:bonedata
  begin
     id 1 
     name lhipjoint
     direction 0.623529 -0.717805 0.309788 
     length 2.23224 
     axis 0 0 0  XYZ
  end
  begin
     id 2 
     name lfemur
     direction 0.34202 -0.939693 0  
     length 7.11402  
     axis 0 0 20  XYZ
    dof rx ry rz
    limits (-160.0 20.0)
           (-70.0 70.0)
           (-60.0 70.0)
  end
  begin
     id 3 
     name ltibia
     direction 0.34202 -0.939693 0   
     length 6.78496   
     axis 0 0 20   XYZ
    dof rx
    limits (-10.0 170.0)
  end
  begin
     id 4 
     name lfoot
     direction 0.125078 -0.343648 0.930732   
     length 1.84054   
     axis -90 7.62852e-016 20   XYZ
    dof rx rz
    limits (-45.0 90.0)
           (-70.0 20.0)
  end
  begin
     id 5 
     name ltoes
     direction 1.53565e-011 -4.21893e-011 1   
     length 0.916474   
     axis -90 7.62852e-016 20   XYZ
    dof rx
    limits (-90.0 20.0)
  end
  begin
     id 6 
     name rhipjoint
     direction -0.564688 -0.757748 0.327026   
     length 2.11457  
     axis 0 0 0  XYZ 
  end
  begin
     id 7 
     name rfemur
     direction -0.34202 -0.939693 0   
     length 7.14609   
     axis 0 0 -20   XYZ
    dof rx ry rz
    limits (-160.0 20.0)
           (-70.0 70.0)
           (-70.0 60.0)
  end
  begin
     id 8 
     name rtibia
     direction -0.34202 -0.939693 0   
     length 6.78101   
     axis 0 0 -20   XYZ
    dof rx
    limits (-10.0 170.0)
 end
 begin
     id 9 
     name rfoot
     direction -0.0992671 -0.272734 0.956955   
     length 1.96168  
     axis -90 -7.62852e-016 -20   XYZ
    dof rx rz
    limits (-45.0 90.0)
           (-20.0 70.0)
  end
  begin
     id 10 
     name rtoes
     direction -1.5356e-011 -4.21891e-011 1   
     length 0.982933   
     axis -90 -7.62852e-016 -20   XYZ
    dof rx
    limits (-90.0 20.0)
  end
  begin
     id 11 
     name lowerback
     direction -0.00596953 0.998668 0.0512524   
     length 1.87557   
     axis 0 0 0   XYZ
    dof rx ry rz
    limits (-20.0 45.0)
           (-30.0 30.0)
           (-30.0 30.0)
  end
  begin
     id 12 
     name upperback
     direction 0.00584879 0.999652 0.0257308   
     length 1.87883   
     axis 0 0 0   XYZ
    dof rx ry rz
    limits (-20.0 45.0)
           (-30.0 30.0)
           (-30.0 30.0)
  end
  begin
     id 13 
     name thorax
     direction 0.010104 0.999947 0.00178881   
     length 1.87779   
     axis 0 0 0   XYZ
    dof rx ry rz
    limits (-20.0 45.0)
           (-30.0 30.0)
           (-30.0 30.0)
  end
  begin
     id 14 
     name lowerneck
     direction 0.0120771 0.995934 -0.0892773   
     length 1.40897   
     axis 0 0 0   XYZ
    dof rx ry rz
    limits (-20.0 45.0)
           (-30.0 30.0)
           (-30.0 30.0)
  end
  begin
     id 15 
     name upperneck
     direction -0.030568 0.999465 -0.0116366   
     length 1.38661   
     axis 0 0 0   XYZ
    dof rx ry rz
    limits (-20.0 45.0)
           (-30.0 30.0)
           (-30.0 30.0)
  end
  begin
     id 16
     name head
     direction -0.0170715 0.999854 -0.00104426  
     length 1.47052  
     axis 0 0 0   XYZ
    dof rx ry rz
    limits (-20.0 45.0)
           (-30.0 30.0)
           (-30.0 30.0)
  end
  begin
     id 17 
     name lclavicle
     direction 0.977763 0.206143 0.038532  
     length 3.02424  
     axis 0 0 0   XYZ
    dof ry rz
    limits (-20.0 10.0)
           (0.0 20.0)
  end
  begin
     id 18 
     name lhumerus
     direction 1 -4.48965e-011 -2.62654e-027   
     length 4.68382   
     axis 180 -30 -90   XYZ
    dof rx ry rz
    limits (-60.0 90.0)
           (-90.0 90.0)
           (-90.0 90.0)
  end
  begin
     id 19
     name lradius
     direction 1 -4.48973e-011 -1.54954e-027   
     length 2.98124   
     axis 180 -30 -90   XYZ
    dof rx
    limits (-10.0 170.0)
  end
  begin
     id 20
     name lwrist
     direction 1 -4.48959e-011 7.20928e-028   
     length 1.49062   
     axis -5.52449e-016 90 90   XYZ
    dof ry
    limits (-180.0 0.0)
 end
  begin
     id 21 
     name lhand
     direction 1 -4.48971e-011 1.44186e-027   
     length 0.707595   
     axis -9.20027e-016 90 90   XYZ
    dof rx rz
    limits (-90.0 90.0)
           (-45.0 45.0)
  end
  begin
     id 22 
     name lfingers
     direction 1 -4.48985e-011 2.88371e-027   
     length 0.570481   
     axis -1.84005e-015 90 90   XYZ
    dof rx
    limits (0.0 90.0)
  end
  begin
     id 23
     name lthumb
     direction 0.707107 -6.34929e-011 0.707107   
     length 0.819101   
     axis -90 45 2.85299e-015   XYZ
    dof rx rz
    limits (-45.0 45.0)
           (-45.0 45.0)
  end
  begin
     id 24 
     name rclavicle
     direction -0.958661 0.284411 -0.00895327   
     length 3.11921  
     axis 0 0 0   XYZ 
    dof ry rz
    limits (-10.0 20.0)
           (-20.0 0.0)
  end
  begin
     id 25 
     name rhumerus
     direction -1 -4.48963e-011 -4.22193e-027  
     length 4.75876   
     axis 180 30 90   XYZ
    dof rx ry rz
    limits (-90.0 60.0)
           (-90.0 90.0)
           (-90.0 90.0)
  end
  begin
     id 26 
     name rradius
     direction -1 -4.48968e-011 -1.07616e-027   
     length 2.93293   
     axis 180 30 90   XYZ
    dof rx
    limits (-10.0 170.0)
  end
  begin
     id 27 
     name rwrist
     direction -1 -4.48965e-011 7.20928e-028   
     length 1.46647   
     axis -5.52449e-016 -90 -90   XYZ
    dof ry
    limits (-180.0 0.0)
  end
  begin
     id 28
     name rhand
     direction -1 -4.48971e-011 1.44186e-027   
     length 0.831748   
     axis -9.20027e-016 -90 -90   XYZ
    dof rx rz
    limits (-90.0 90.0)
           (-45.0 45.0)
  end
  begin
     id 29
     name rfingers
     direction -1 -4.48961e-011 2.88371e-027   
     length 0.670577   
     axis -1.84005e-015 -90 -90   XYZ
    dof rx
    limits (0.0 90.0)
  end
  begin
     id 30
     name rthumb
     direction -0.707107 -6.34929e-011 0.707107   
     length 0.962818   
     axis -90 -45 -2.85299e-015   XYZ
    dof rx rz
    limits (-45.0 45.0)
           (-45.0 45.0)
  end
:hierarchy
  begin
    root lhipjoint rhipjoint lowerback
    lhipjoint lfemur
    lfemur ltibia
    ltibia lfoot
    lfoot ltoes
    rhipjoint rfemur
    rfemur rtibia
    rtibia rfoot
    rfoot rtoes
    lowerback upperback
    upperback thorax
    thorax lowerneck lclavicle rclavicle
    lowerneck upperneck
    upperneck head
    lclavicle lhumerus
    lhumerus lradius
    lradius lwrist
    lwrist lhand lthumb
    lhand lfingers
    rclavicle rhumerus
    rhumerus rradius
    rradius rwrist
    rwrist rhand rthumb
    rhand rfingers
  end

#!OML:ASF E:\id_vita\Project 1\Capture day 1\Session 1\Female.ASF
:FULLY-SPECIFIED
:DEGREES
1
root -24.1334 16.3756 -0.476839 -18.5307 87.1736 -30.9044
lowerback -13.9882 -0.114393 -5.8735
upperback -5.92003 0.839581 1.66791
thorax 1.47203 0.650227 5.20499
lowerneck 2.09793 -0.0445852 -7.63475
upperneck 12.0174 -1.28903 19.5999
head 3.25776 0.00908067 7.40756
rclavicle 7.2867e-015 1.49089e-014
rhumerus -34.0268 -17.1469 -82.7237
rradius 15.9407
rwrist 27.8945
rhand -14.2748 11.755
rfingers 7.12502
rthumb 11.8642 -17.8889
lclavicle 7.2867e-015 1.49089e-014
lhumerus -44.6801 42.7138 63.5368
lradius 11.1465
lwrist -68.5298
lhand -4.50943 23.0706
lfingers 7.12502
lthumb 21.2647 51.9241
rfemur -19.4586 3.22156 20.2153
rtibia 24.921
rfoot -14.2718 -10.9941
rtoes -10.8639
lfemur -20.5421 -7.82953 -18.5242
ltibia 28.17
lfoot -26.907 4.29082
ltoes 5.07227
2
root -24.1323 16.3753 -0.477161 -19.8661 87.2802 -32.0473
lowerback -14.3096 -0.00384671 -4.58703
upperback -5.52904 0.848735 0.708824
thorax 2.10341 0.590163 3.47254
lowerneck 1.83651 0.0587117 -7.14478
upperneck 11.8927 -1.18022 20.7159
head 3.2456 0.153835 7.69483
rclavicle 6.01324e-015 -6.36111e-015
rhumerus -33.5488 -18.7884 -83.792
rradius 15.681
rwrist 29.2434
rhand -14.4914 11.8295
rfingers 7.12502
rthumb 11.6552 -17.8264
lclavicle 6.01324e-015 -6.36111e-015
lhumerus -42.5257 42.5833 63.2542
lradius 9.45814
lwrist -68.5168
lhand -5.05201 23.5276
lfingers 7.12502
lthumb 20.7434 52.4389
rfemur -19.223 3.19687 20.2382
rtibia 24.9223
rfoot -14.41 -11.089
rtoes -10.4953
lfemur -20.3249 -7.84224 -18.5421
ltibia 28.1351
lfoot -26.8065 4.09109
ltoes 5.61835
3
root -24.1292 16.3741 -0.477222 -20.4776 87.345 -32.6324
lowerback -14.5226 -0.0275845 -4.34672
upperback -5.39725 0.799511 0.508938
thorax 2.36905 0.550305 3.12384
lowerneck 1.84241 0.128093 -7.02896
upperneck 11.803 -1.0879 21.0693
head 3.20276 0.219101 7.79255
rclavicle 3.72721e-016 5.96354e-015
rhumerus -33.3359 -18.8612 -84.1911
rradius 15.6481
rwrist 29.3025
rhand -14.5155 11.8493
rfingers 7.12502
rthumb 11.632 -17.8078
lclavicle 3.72721e-016 5.96354e-015
lhumerus -41.9356 42.5534 63.2731
lradius 9.00678
lwrist -68.3104
lhand -5.1112 23.6457
lfingers 7.12502
lthumb 20.6866 52.5633
rfemur -19.1714 3.19097 20.2371
rtibia 24.9161
rfoot -14.4195 -11.1592
rtoes -10.5846
lfemur -20.3059 -7.83452 -18.5535
ltibia 28.1552
lfoot -26.8388 4.01815
ltoes 5.67138
4
root -24.1242 16.3699 -0.478696 -19.5866 87.388 -31.6301
lowerback -14.4815 -0.0624016 -4.41892
upperback -5.36288 0.759839 0.503548
thorax 2.38535 0.529004 3.15238
lowerneck 1.95248 0.131519 -6.93393
upperneck 11.6865 -1.06888 21.1072
head 3.14652 0.223284 7.78445
rclavicle -5.14355e-015 5.56597e-015
rhumerus -33.3312 -18.4721 -84.3921
rradius 15.801
rwrist 28.7753
rhand -14.405 11.7738
rfingers 7.12502
rthumb 11.7386 -17.8773
lclavicle -5.14355e-015 5.56597e-015
lhumerus -42.0239 42.4754 63.2788
lradius 9.11247
lwrist -68.0741
lhand -5.00521 23.6465
lfingers 7.12502
lthumb 20.7884 52.5529
rfemur -19.0408 3.08483 20.2057
rtibia 24.9014
rfoot -14.2535 -11.3124
rtoes -12.049
lfemur -20.1674 -7.77166 -18.6649
ltibia 28.175
lfoot -26.949 4.02341
ltoes 5.12468
5
root -24.1217 16.3687 -0.479974 -18.9086 87.1845 -31.0296
lowerback -14.5944 -0.00060827 -4.3316
upperback -5.38035 0.836473 0.499395
thorax 2.4226 0.566618 3.11264
lowerneck 1.91259 0.124783 -6.9689
upperneck 11.6543 -1.08808 21.4206
head 3.14527 0.229253 7.8968
rclavicle 1.4064e-014 -7.15625e-015
rhumerus -33.3208 -18.3934 -84.4768
rradius 15.831
rwrist 28.5056
rhand -14.4273 11.7332
rfingers 7.12502
rthumb 11.7171 -17.9191
lclavicle 1.4064e-014 -7.15625e-015
lhumerus -42.0378 42.3557 63.3142
lradius 9.18885
lwrist -67.8269
lhand -5.05016 23.7792
lfingers 7.12502
lthumb 20.7452 52.6904
rfemur -19.1599 3.11877 20.2804
rtibia 24.8826
rfoot -14.1222 -11.3281
rtoes -13.1294
lfemur -20.237 -7.77315 -18.5972
ltibia 28.2038
lfoot -26.9578 4.24913
ltoes 5.09695
6
root -24.1228 16.3736 -0.48041 -20.2254 87.1138 -32.3676
lowerback -14.581 0.00389365 -4.23876
upperback -5.39672 0.829185 0.500548
thorax 2.40061 0.563303 3.05967
lowerneck 1.84877 0.151562 -7.05109
upperneck 11.714 -1.0753 21.7898
head 3.16963 0.258605 8.04074
rclavicle 1.41634e-015 -2.38542e-015
rhumerus -33.3109 -18.3886 -84.5244
rradius 15.8022
rwrist 28.4208
rhand -14.4318 11.6141
rfingers 7.12502
rthumb 11.7128 -18.0384
lclavicle 1.41634e-015 -2.38542e-015
lhumerus -42.0345 42.2436 63.3077
lradius 9.23506
lwrist -67.5571
lhand -5.12708 23.7476
lfingers 7.12502
lthumb 20.6713 52.6668
rfemur -19.1369 3.25677 20.3356
rtibia 24.8347
rfoot -14.2628 -11.2095
rtoes -11.6314
lfemur -20.2758 -7.68042 -18.4952
ltibia 28.2329
lfoot -27.0053 4.15253
ltoes 5.6073
7
root -24.1243 16.377 -0.480514 -21.349 87.2334 -33.526
lowerback -14.5398 -0.120676 -4.67957
upperback -5.43528 0.714157 0.80263
thorax 2.3347 0.515841 3.60795
lowerneck 1.89349 0.160568 -7.30074
upperneck 11.7478 -1.07138 21.7985
head 3.17013 0.247315 8.09052
rclavicle 4.84538e-015 -3.18055e-015
rhumerus -33.3063 -18.0305 -84.1473
rradius 15.8373
rwrist 28.2822
rhand -14.2276 11.6179
rfingers 7.12502
rthumb 11.9097 -18.0234
lclavicle 4.84538e-015 -3.18055e-015
lhumerus -42.1669 42.3532 63.703
lradius 9.27672
lwrist -67.4307
lhand -5.12795 23.601
lfingers 7.12502
lthumb 20.6705 52.5203
rfemur -19.1042 3.26916 20.3074
rtibia 24.7735
rfoot -14.3201 -11.1942
rtoes -10.4883
lfemur -20.3537 -7.54448 -18.5026
ltibia 28.2794
lfoot -27.0487 3.84167
ltoes 5.77448
8
root -24.1212 16.3705 -0.481898 -21.583 87.2364 -33.565
lowerback -14.3499 -0.163884 -5.09299
upperback -5.39578 0.689546 1.10143
thorax 2.26439 0.509099 4.15129
lowerneck 1.91817 0.135347 -7.55037
upperneck 11.767 -1.11231 21.7914
head 3.17727 0.213309 8.13404
rclavicle 7.62836e-015 -1.11319e-014
rhumerus -33.3142 -17.8069 -83.6932
rradius 15.8585
rwrist 28.3125
rhand -14.0834 11.8953
rfingers 7.12502
rthumb 12.0487 -17.7378
lclavicle 7.62836e-015 -1.11319e-014
lhumerus -42.5355 42.2841 63.9499
lradius 9.58011
lwrist -67.3021
lhand -4.97366 23.3802
lfingers 7.12502
lthumb 20.8187 52.2833
rfemur -18.8916 3.16326 20.3535
rtibia 24.7313
rfoot -14.1191 -11.3326
rtoes -11.9688
lfemur -20.1398 -7.54886 -18.543
ltibia 28.3119
lfoot -27.0446 3.88343
ltoes 5.39993
9
root -24.1221 16.3667 -0.482233 -22.5463 87.0987 -34.6517
lowerback -14.4865 -0.0704622 -4.56439
upperback -5.41548 0.759751 0.815807
thorax 2.32455 0.536536 3.56303
lowerneck 1.86623 0.129095 -7.37491
upperneck 11.7929 -1.13549 22.1331
head 3.1961 0.23516 8.22055
rclavicle -6.75868e-015 -3.18055e-015
rhumerus -33.3433 -18.4127 -83.9595
rradius 15.8289
rwrist 28.7612
rhand -14.1436 12.0439
rfingers 7.12502
rthumb 11.9906 -17.5927
lclavicle -6.75868e-015 -3.18055e-015
lhumerus -42.6208 41.8138 63.4517
lradius 9.86739
lwrist -67.0971
lhand -4.76912 23.1488
lfingers 7.12502
lthumb 21.0152 52.0301
rfemur -19.0873 3.18648 20.4834
rtibia 24.7366
rfoot -13.934 -11.4041
rtoes -12.9844
lfemur -20.2905 -7.56228 -18.4011
ltibia 28.3123
lfoot -26.9856 4.03821
ltoes 4.99281
10
root -24.1061 16.366 -0.486652 -19.4333 86.591 -31.3618
lowerback -14.6024 0.163331 -4.01047
upperback -5.31837 1.00293 0.540654
thorax 2.48413 0.642291 3.00189
lowerneck 1.89349 0.174249 -7.23073
upperneck 11.7873 -1.08203 22.4397
head 3.1796 0.28503 8.30047
rclavicle -1.2424e-016 -7.55382e-015
rhumerus -33.3887 -18.569 -84.4
rradius 15.8924
rwrist 28.7765
rhand -14.2694 11.8843
rfingers 7.12502
rthumb 11.8693 -17.7592
lclavicle -1.2424e-016 -7.55382e-015
lhumerus -42.2925 41.6924 63.3043
lradius 9.68063
lwrist -66.9966
lhand -4.79724 23.2285
lfingers 7.12502
lthumb 20.9882 52.1129
rfemur -18.8734 3.45704 20.4994
rtibia 24.7491
rfoot -14.2874 -10.904
rtoes -11.6562
lfemur -19.9234 -7.80432 -18.3628
ltibia 28.287
lfoot -26.9595 4.84668
ltoes 4.94017
